<svg width="15" height="15" viewBox="0 0 15 15" fill="none" xmlns="http://www.w3.org/2000/svg">
<path d="M2.66346 12.0705C3.3718 11.5609 4.1234 11.1579 4.91827 10.8614C5.71315 10.5649 6.57372 10.4167 7.50001 10.4167C8.42629 10.4167 9.28686 10.5649 10.0817 10.8614C10.8766 11.1579 11.6282 11.5609 12.3365 12.0705C12.8868 11.5011 13.3293 10.8285 13.6643 10.0529C13.9992 9.27725 14.1667 8.42629 14.1667 7.50001C14.1667 5.65278 13.5174 4.07987 12.2188 2.78126C10.9201 1.48264 9.34723 0.833338 7.50001 0.833338C5.65278 0.833338 4.07987 1.48264 2.78126 2.78126C1.48264 4.07987 0.833338 5.65278 0.833338 7.50001C0.833338 8.42629 1.00081 9.27725 1.33574 10.0529C1.67068 10.8285 2.11325 11.5011 2.66346 12.0705ZM7.50001 7.91667C6.79808 7.91667 6.20593 7.67549 5.72356 7.19312C5.24119 6.71074 5 6.1186 5 5.41667C5 4.71475 5.24119 4.1226 5.72356 3.64023C6.20593 3.15786 6.79808 2.91667 7.50001 2.91667C8.20193 2.91667 8.79408 3.15786 9.27645 3.64023C9.75882 4.1226 10 4.71475 10 5.41667C10 6.1186 9.75882 6.71074 9.27645 7.19312C8.79408 7.67549 8.20193 7.91667 7.50001 7.91667ZM7.50001 15C6.45406 15 5.4749 14.8053 4.5625 14.4159C3.65011 14.0265 2.85631 13.4941 2.18109 12.8189C1.50588 12.1437 0.973558 11.3499 0.584135 10.4375C0.194712 9.52511 0 8.54595 0 7.50001C0 6.45406 0.194712 5.4749 0.584135 4.5625C0.973558 3.65011 1.50588 2.85631 2.18109 2.18109C2.85631 1.50588 3.65011 0.973558 4.5625 0.584134C5.4749 0.194711 6.45406 0 7.50001 0C8.54595 0 9.52511 0.194711 10.4375 0.584134C11.3499 0.973558 12.1437 1.50588 12.8189 2.18109C13.4941 2.85631 14.0265 3.65011 14.4159 4.5625C14.8053 5.4749 15 6.45406 15 7.50001C15 8.54595 14.8053 9.52511 14.4159 10.4375C14.0265 11.3499 13.4941 12.1437 12.8189 12.8189C12.1437 13.4941 11.3499 14.0265 10.4375 14.4159C9.52511 14.8053 8.54595 15 7.50001 15ZM7.50001 14.1667C8.26817 14.1667 9.02404 14.0323 9.76763 13.7636C10.5112 13.4949 11.1538 13.1271 11.6955 12.6603C11.1538 12.2254 10.5272 11.8817 9.81571 11.629C9.10417 11.3763 8.33227 11.25 7.50001 11.25C6.66774 11.25 5.89317 11.3737 5.17629 11.621C4.45941 11.8683 3.83548 12.2148 3.30449 12.6603C3.84616 13.1271 4.48879 13.4949 5.23238 13.7636C5.97597 14.0323 6.73184 14.1667 7.50001 14.1667ZM7.50001 7.08334C7.96795 7.08334 8.36272 6.92255 8.6843 6.60097C9.00588 6.27938 9.16667 5.88462 9.16667 5.41667C9.16667 4.94872 9.00588 4.55396 8.6843 4.23238C8.36272 3.9108 7.96795 3.75001 7.50001 3.75001C7.03206 3.75001 6.63729 3.9108 6.31571 4.23238C5.99413 4.55396 5.83334 4.94872 5.83334 5.41667C5.83334 5.88462 5.99413 6.27938 6.31571 6.60097C6.63729 6.92255 7.03206 7.08334 7.50001 7.08334Z" fill="white"/>
</svg>
